# xmcd
#
# Track frame offsets:
#	150
#	10862
#	28550
#	40635
#	55125
#	78992
#	93880
#	115532
#	129415
#	149245
#	162567
#	177982
#	190130
#	205420
#
# Disc length: 2940 seconds
#
# Revision: 1
# Processed by: cddbd v1.5.2PL0 Copyright (c) Steve Scherf et al.
# Submitted via: audiograbber 1.83.01
#
DISCID=b70b7a0e
DTITLE=Laura Walker - the Piney Rose
DYEAR=1900
DGENRE=Country
TTITLE0=Ridge Road Gravel
TTITLE1=The Piney Rose
TTITLE2=Cabin Of Love
TTITLE3=Blue
TTITLE4=Where The Wild River Rolls
TTITLE5=Wish Youw Were With Me Now
TTITLE6=Trouble In Mind
TTITLE7=Sadie Koones
TTITLE8=Summer Of My Dreams
TTITLE9=River Of Tears
TTITLE10=Never Too Close
TTITLE11=Refill Of Your Love
TTITLE12=Sweet Sunny South
TTITLE13=Woman Be Wise
EXTD=
EXTT0=
EXTT1=
EXTT2=
EXTT3=
EXTT4=
EXTT5=
EXTT6=
EXTT7=
EXTT8=
EXTT9=
EXTT10=
EXTT11=
EXTT12=
EXTT13=
PLAYORDER=
